# Blender 4.5.0
# www.blender.org
mtllib model2.mtl
o Cube
v 0.205000 0.423529 -0.175000
v 0.205000 0.476471 0.175000
v -0.205000 0.423529 -0.175000
v -0.205000 0.476471 0.175000
v 0.205000 0.476471 -0.225000
v -0.205000 0.476471 -0.225000
v -0.205000 0.900000 -0.275000
v 0.205000 0.900000 -0.275000
v -0.205000 0.423529 0.225000
v 0.205000 0.423529 0.225000
v 0.225000 0.423529 -0.175000
v 0.225000 0.476471 0.175000
v 0.225000 0.476471 -0.225000
v 0.225000 0.900000 -0.275000
v 0.225000 0.423529 0.225000
v -0.225000 0.423529 -0.175000
v -0.225000 0.476471 0.175000
v -0.225000 0.476471 -0.225000
v -0.225000 0.900000 -0.275000
v -0.225000 0.423529 0.225000
v 0.205000 0.423529 0.135000
v 0.205000 0.383529 0.175000
v 0.205000 0.418170 0.155000
v 0.205000 0.403529 0.169641
v -0.205000 0.383529 0.175000
v -0.205000 0.423529 0.135000
v -0.205000 0.403529 0.169641
v -0.205000 0.418170 0.155000
v -0.205000 0.476471 0.185000
v -0.205000 0.436471 0.225000
v -0.205000 0.471112 0.205000
v -0.205000 0.456471 0.219641
v 0.205000 0.476471 0.185000
v 0.205000 0.436471 0.225000
v 0.205000 0.471112 0.205000
v 0.205000 0.456471 0.219641
v 0.225000 0.383529 0.175000
v 0.225000 0.423529 0.135000
v 0.225000 0.463529 0.175000
v 0.225000 0.423529 0.215000
v 0.225000 0.403529 0.169641
v 0.225000 0.418170 0.155000
v 0.225000 0.476471 0.185000
v 0.225000 0.436471 0.225000
v 0.225000 0.471112 0.205000
v 0.225000 0.456471 0.219641
v -0.225000 0.423529 0.135000
v -0.225000 0.383529 0.175000
v -0.225000 0.423529 0.215000
v -0.225000 0.463529 0.175000
v -0.225000 0.418170 0.155000
v -0.225000 0.403529 0.169641
v -0.225000 0.436471 0.225000
v -0.225000 0.476471 0.185000
v -0.225000 0.456471 0.219641
v -0.225000 0.471112 0.205000
v 0.205000 0.476471 -0.135000
v 0.205000 0.516471 -0.175000
v 0.205000 0.481830 -0.155000
v 0.205000 0.496471 -0.169641
v -0.205000 0.476471 -0.135000
v -0.205000 0.516471 -0.175000
v -0.205000 0.481830 -0.155000
v -0.205000 0.496471 -0.169641
v 0.205000 0.463529 -0.225000
v 0.205000 0.423529 -0.185000
v 0.205000 0.383529 -0.225000
v 0.165000 0.423529 -0.225000
v 0.205000 0.443529 -0.219641
v 0.205000 0.428888 -0.205000
v -0.205000 0.423529 -0.185000
v -0.205000 0.463529 -0.225000
v -0.165000 0.423529 -0.225000
v -0.205000 0.383529 -0.225000
v -0.205000 0.428888 -0.205000
v -0.205000 0.443529 -0.219641
v 0.225000 0.516471 -0.175000
v 0.225000 0.476471 -0.135000
v 0.225000 0.436471 -0.175000
v 0.225000 0.476471 -0.215000
v 0.225000 0.496471 -0.169641
v 0.225000 0.481830 -0.155000
v 0.225000 0.423529 -0.185000
v 0.225000 0.463529 -0.225000
v 0.225000 0.428888 -0.205000
v 0.225000 0.443529 -0.219641
v -0.225000 0.476471 -0.135000
v -0.225000 0.516471 -0.175000
v -0.225000 0.476471 -0.215000
v -0.225000 0.436471 -0.175000
v -0.225000 0.481830 -0.155000
v -0.225000 0.496471 -0.169641
v -0.225000 0.463529 -0.225000
v -0.225000 0.423529 -0.185000
v -0.225000 0.443529 -0.219641
v -0.225000 0.428888 -0.205000
v 0.205000 0.009931 -0.223828
v 0.205000 0.000000 -0.235000
v -0.205000 0.000000 -0.235000
v -0.205000 0.009931 -0.223828
v 0.205000 0.000000 -0.265000
v 0.205000 0.009916 -0.273707
v -0.205000 0.009916 -0.273707
v -0.205000 0.000000 -0.265000
v -0.205000 0.000000 0.235000
v -0.205000 0.009916 0.223707
v 0.205000 0.009916 0.223707
v 0.205000 0.000000 0.235000
v -0.205000 0.009931 0.273828
v -0.205000 0.000000 0.265000
v 0.205000 0.000000 0.265000
v 0.205000 0.009931 0.273828
v 0.225000 0.000000 0.235000
v 0.225000 0.009916 0.223707
v 0.225000 0.009931 0.273828
v 0.225000 0.000000 0.265000
v -0.225000 0.000000 0.265000
v -0.225000 0.009931 0.273828
v -0.225000 0.009916 0.223707
v -0.225000 0.000000 0.235000
v -0.205000 0.900000 -0.265000
v -0.205000 0.890211 -0.252958
v 0.205000 0.900000 -0.265000
v 0.205000 0.890211 -0.252958
v 0.225000 0.900000 -0.265000
v 0.225000 0.890211 -0.252958
v -0.225000 0.890211 -0.252958
v -0.225000 0.900000 -0.265000
vn -0.0000 -0.1172 -0.9931
vn 1.0000 -0.0000 -0.0000
vn -1.0000 -0.0000 -0.0000
vn -0.0000 0.2588 0.9659
vn -0.0000 0.7071 0.7071
vn -0.0000 0.9659 0.2588
vn -0.0000 -0.9659 -0.2588
vn -0.0000 -0.7071 -0.7071
vn -0.0000 -0.2588 -0.9659
vn -0.0000 -1.0000 -0.0000
vn -0.0000 -0.0000 1.0000
vn -0.0000 1.0000 -0.0000
vn 0.6000 -0.0000 -0.8000
vn -0.6000 -0.0000 -0.8000
vn -0.0000 -0.0000 -1.0000
vn -0.0000 -0.7474 0.6644
vn -0.0000 -0.6598 -0.7514
vn -0.0000 -0.7514 -0.6598
vn -0.0000 -0.6644 0.7474
vn -0.0000 -0.1172 0.9931
vn -0.0000 0.1181 -0.9930
vn -0.0000 -0.1293 -0.9916
vn -0.0000 0.1172 0.9931
vn -0.0000 0.7759 0.6308
vn -0.0000 0.2042 0.9789
vt 0.625000 0.500000
vt 0.625000 0.250000
vt 0.375000 0.750000
vt 0.375000 0.750000
vt 0.375000 0.746739
vt 0.375000 0.724376
vt 0.563889 0.750000
vt 0.375000 0.750000
vt 0.375000 0.024675
vt 0.375000 0.000000
vt 0.539823 0.000000
vt 0.436111 0.750000
vt 0.436111 0.750000
vt 0.530556 0.750000
vt 0.530556 0.750000
vt 0.608905 0.750000
vt 0.625000 0.750000
vt 0.625000 0.750000
vt 0.125000 0.721429
vt 0.375000 0.721429
vt 0.375000 0.735714
vt 0.125000 0.735714
vt 0.375000 0.750000
vt 0.125000 0.750000
vt 0.125000 0.750000
vt 0.875000 0.750000
vt 0.875000 0.750000
vt 0.625000 1.000000
vt 0.530556 1.000000
vt 0.436111 1.000000
vt 0.875000 0.750000
vt 0.530556 1.000000
vt 0.436111 1.000000
vt 0.125000 0.721429
vt 0.125000 0.735714
vt 0.125000 0.750000
vt 0.125000 0.500000
vt 0.375000 0.500000
vt 0.375000 1.000000
vt 0.625000 0.750000
vt 0.625000 0.000000
vt 0.436111 0.000000
vt 0.530556 0.000000
vt 0.599694 0.000000
vt 0.563889 0.500000
vt 0.469444 0.500000
vt 0.392896 0.500000
vt 0.375000 0.500000
vt 0.375000 0.500000
vt 0.375000 0.475610
vt 0.375000 0.250000
vt 0.375000 0.250000
vt 0.402657 0.250000
vt 0.547304 0.250000
vt 0.375000 0.274390
vt 0.375000 0.250000
vt 0.625000 0.500000
vt 0.625000 0.503261
vt 0.625000 0.525535
vt 0.436111 0.500000
vt 0.625000 0.221429
vt 0.625000 0.235714
vt 0.625000 0.246172
vt 0.625000 0.250000
vt 0.625000 0.250000
vt 0.436111 0.250000
vt 0.875000 0.500000
vt 0.875000 0.500000
vt 0.875000 0.500000
vt 0.875000 0.500000
vt 0.875000 0.514286
vt 0.875000 0.514286
vt 0.875000 0.528571
vt 0.875000 0.528571
vt 0.625000 0.528571
vt 0.625000 0.514286
vt 0.625000 0.500000
vt 0.375000 0.500000
vt 0.391095 0.500000
vt 0.469444 0.500000
vt 0.563889 0.500000
vt 0.563889 0.250000
vt 0.469444 0.250000
vt 0.391095 0.250000
vt 0.375000 0.250000
vt 0.375000 0.500000
vt 0.125000 0.750000
vt 0.125000 0.750000
vt 0.625000 0.500000
vt 0.875000 0.500000
s 0
usemtl Material
f 5/1/1 6/2/1 7/2/1 8/1/1
f 5/1/1 8/1/1 14/1/1 13/1/1
f 7/2/1 6/2/1 18/2/1 19/2/1
f 37/3/2 41/4/2 42/5/2 38/6/2 39/7/2 40/8/2
f 47/9/3 51/10/3 52/10/3 48/10/3 49/10/3 50/11/3
f 34/12/4 44/13/4 46/14/4 36/15/4
f 36/15/5 46/14/5 45/16/5 35/17/5
f 35/17/6 45/16/6 43/18/6 33/17/6
f 26/19/7 21/20/7 23/21/7 28/22/7
f 28/22/8 23/21/8 24/23/8 27/24/8
f 27/24/9 24/23/9 22/8/9 25/25/9
f 33/17/6 29/26/6 31/27/6 35/17/6
f 35/17/5 31/28/5 32/29/5 36/15/5
f 36/15/4 32/29/4 30/30/4 34/12/4
f 29/26/6 54/31/6 56/26/6 31/27/6
f 31/28/5 56/28/5 55/32/5 32/29/5
f 32/29/4 55/32/4 53/33/4 30/30/4
f 21/20/7 38/6/7 42/5/7 23/21/7
f 23/21/8 42/5/8 41/4/8 24/23/8
f 24/23/9 41/4/9 37/3/9 22/8/9
f 47/34/7 26/19/7 28/22/7 51/35/7
f 51/35/8 28/22/8 27/24/8 52/24/8
f 52/24/9 27/24/9 25/25/9 48/36/9
f 3/37/10 1/38/10 21/20/10 26/19/10
f 21/20/10 1/38/10 11/38/10 38/6/10
f 3/37/10 26/19/10 47/34/10 16/37/10
f 9/39/11 30/30/11 53/33/11 20/39/11
f 29/26/12 4/26/12 17/26/12 54/31/12
f 10/8/11 34/12/11 30/30/11 9/39/11
f 2/40/12 4/26/12 29/26/12 33/17/12
f 34/12/11 10/8/11 15/8/11 44/13/11
f 2/40/12 33/17/12 43/18/12 12/40/12
f 40/8/2 39/7/2 12/40/2 43/18/2 45/16/2 46/14/2 44/13/2 15/8/2
f 17/41/3 50/11/3 49/10/3 20/10/3 53/42/3 55/43/3 56/44/3 54/41/3
f 65/45/13 69/46/13 70/47/13 66/48/13 67/49/13 68/50/13
f 71/51/14 75/52/14 76/53/14 72/54/14 73/55/14 74/56/14
f 77/57/2 81/1/2 82/58/2 78/59/2 79/60/2 80/1/2
f 87/61/3 91/62/3 92/63/3 88/64/3 89/65/3 90/66/3
f 62/67/4 88/68/4 92/69/4 64/70/4
f 64/70/5 92/69/5 91/71/5 63/72/5
f 63/72/6 91/71/6 87/73/6 61/74/6
f 61/74/6 57/75/6 59/76/6 63/72/6
f 63/72/5 59/76/5 60/77/5 64/70/5
f 64/70/4 60/77/4 58/1/4 62/67/4
f 57/75/6 78/59/6 82/58/6 59/76/6
f 59/76/5 82/58/5 81/1/5 60/77/5
f 60/77/4 81/1/4 77/57/4 58/1/4
f 83/78/7 66/48/7 70/47/7 85/79/7
f 85/79/8 70/47/8 69/46/8 86/80/8
f 86/80/9 69/46/9 65/45/9 84/81/9
f 93/82/9 72/54/9 76/53/9 95/83/9
f 95/83/8 76/53/8 75/52/8 96/84/8
f 96/84/7 75/52/7 71/51/7 94/85/7
f 57/75/12 2/40/12 12/40/12 78/59/12
f 57/75/12 61/74/12 4/26/12 2/40/12
f 4/26/12 61/74/12 87/73/12 17/26/12
f 1/38/10 66/48/10 83/78/10 11/38/10
f 73/55/15 72/54/15 6/2/15 5/1/15 65/45/15 68/50/15
f 65/45/15 5/1/15 13/1/15 84/81/15
f 71/51/10 3/85/10 16/85/10 94/85/10
f 6/2/15 72/54/15 93/82/15 18/2/15
f 80/1/2 79/60/2 11/38/2 83/78/2 85/79/2 86/80/2 84/81/2 13/1/2
f 11/38/2 79/60/2 78/59/2 12/40/2 39/7/2 38/6/2
f 47/9/3 50/11/3 17/41/3 87/61/3 90/66/3 16/85/3
f 16/85/3 90/66/3 89/65/3 18/2/3 93/82/3 95/83/3 96/84/3 94/85/3
f 97/38/16 100/37/16 99/37/16 98/38/16
f 101/78/17 104/37/17 103/37/17 102/86/17
f 106/24/18 107/8/18 108/8/18 105/87/18
f 110/88/19 111/4/19 112/8/19 109/25/19
f 113/8/18 108/8/18 107/8/18 114/8/18
f 111/4/19 116/8/19 115/4/19 112/8/19
f 109/25/19 118/24/19 117/36/19 110/88/19
f 119/36/18 106/24/18 105/87/18 120/24/18
f 1/38/20 3/37/20 100/37/20 97/38/20
f 98/38/10 99/37/10 104/37/10 101/78/10
f 67/49/2 66/48/2 1/38/2 97/38/2 98/38/2 101/78/2 102/86/2
f 3/85/3 71/51/3 74/56/3 103/52/3 104/85/3 99/85/3 100/85/3
f 74/56/21 73/55/21 68/50/21 67/49/21 102/86/21 103/52/21
f 25/25/22 22/8/22 107/8/22 106/24/22
f 105/87/10 108/8/10 111/4/10 110/88/10
f 105/87/10 110/88/10 117/36/10 120/24/10
f 25/25/22 106/24/22 119/36/22 48/36/22
f 111/4/10 108/8/10 113/8/10 116/8/10
f 107/8/22 22/8/22 37/3/22 114/8/22
f 109/39/23 9/39/23 20/39/23 118/39/23
f 10/8/23 9/39/23 109/39/23 112/8/23
f 10/8/23 112/8/23 115/4/23 15/8/23
f 37/3/2 40/8/2 15/8/2 115/4/2 116/8/2 113/8/2 114/8/2
f 20/10/3 49/10/3 48/10/3 119/10/3 120/10/3 117/10/3 118/10/3
f 125/1/24 123/1/24 124/1/24 126/89/24
f 122/90/24 124/1/24 123/1/24 121/68/24
f 121/68/24 128/69/24 127/67/24 122/90/24
f 62/67/25 58/1/25 124/1/25 122/90/25
f 121/68/12 123/1/12 8/1/12 7/67/12
f 121/68/12 7/67/12 19/67/12 128/69/12
f 62/67/25 122/90/25 127/67/25 88/68/25
f 124/1/25 58/1/25 77/57/25 126/89/25
f 8/1/12 123/1/12 125/1/12 14/1/12
f 77/57/2 80/1/2 13/1/2 14/1/2 125/1/2 126/89/2
f 18/2/3 89/65/3 88/64/3 127/2/3 128/2/3 19/2/3
