# Blender 4.5.0
# www.blender.org
mtllib model2.mtl
o Cube
v 0.205000 0.400000 -0.175000
v 0.205000 0.450000 0.175000
v -0.205000 0.400000 -0.175000
v -0.205000 0.450000 0.175000
v 0.205000 0.450000 -0.225000
v -0.205000 0.450000 -0.225000
v -0.205000 0.900000 -0.275000
v 0.205000 0.900000 -0.275000
v -0.205000 0.400000 0.225000
v 0.205000 0.400000 0.225000
v 0.225000 0.400000 -0.175000
v 0.225000 0.450000 0.175000
v 0.225000 0.450000 -0.225000
v 0.225000 0.900000 -0.275000
v 0.225000 0.400000 0.225000
v -0.225000 0.400000 -0.175000
v -0.225000 0.450000 0.175000
v -0.225000 0.450000 -0.225000
v -0.225000 0.900000 -0.275000
v 0.205000 0.400000 0.135000
v 0.205000 0.360000 0.175000
v 0.205000 0.394641 0.155000
v 0.205000 0.380000 0.169641
v -0.205000 0.360000 0.175000
v -0.205000 0.400000 0.135000
v -0.205000 0.380000 0.169641
v -0.205000 0.394641 0.155000
v -0.205000 0.450000 0.185000
v -0.205000 0.410000 0.225000
v -0.205000 0.444641 0.205000
v -0.205000 0.430000 0.219641
v 0.205000 0.450000 0.185000
v 0.205000 0.410000 0.225000
v 0.205000 0.444641 0.205000
v 0.205000 0.430000 0.219641
v 0.225000 0.360000 0.175000
v 0.225000 0.400000 0.135000
v 0.225000 0.440000 0.175000
v 0.225000 0.400000 0.215000
v 0.225000 0.380000 0.169641
v 0.225000 0.394641 0.155000
v 0.225000 0.450000 0.185000
v 0.225000 0.410000 0.225000
v 0.225000 0.444641 0.205000
v 0.225000 0.430000 0.219641
v -0.225000 0.400000 0.135000
v -0.225000 0.360000 0.175000
v -0.225000 0.400000 0.215000
v -0.225000 0.440000 0.175000
v -0.225000 0.394641 0.155000
v -0.225000 0.380000 0.169641
v -0.225000 0.450000 0.185000
v -0.225000 0.430000 0.219641
v -0.225000 0.444641 0.205000
v 0.205000 0.450000 -0.135000
v 0.205000 0.490000 -0.175000
v 0.205000 0.455359 -0.155000
v 0.205000 0.470000 -0.169641
v -0.205000 0.450000 -0.135000
v -0.205000 0.490000 -0.175000
v -0.205000 0.455359 -0.155000
v -0.205000 0.470000 -0.169641
v 0.225000 0.490000 -0.175000
v 0.225000 0.450000 -0.135000
v 0.225000 0.410000 -0.175000
v 0.225000 0.450000 -0.215000
v 0.225000 0.470000 -0.169641
v 0.225000 0.455359 -0.155000
v -0.225000 0.450000 -0.135000
v -0.225000 0.490000 -0.175000
v -0.225000 0.450000 -0.215000
v -0.225000 0.410000 -0.175000
v -0.225000 0.455359 -0.155000
v -0.225000 0.470000 -0.169641
v -0.205000 0.400000 0.225000
v -0.225000 0.400000 0.215000
v -0.225000 0.360000 0.225000
v -0.215000 0.400000 0.223660
v -0.222321 0.400000 0.220000
v -0.225000 0.430000 0.219641
v -0.205000 0.410000 0.225000
v -0.222321 0.420000 0.222320
v -0.215000 0.412680 0.224282
v -0.205000 0.890185 -0.253085
v -0.205000 0.900000 -0.265000
v 0.205000 0.890185 -0.253085
v 0.205000 0.900000 -0.265000
v 0.225000 0.900000 -0.265000
v 0.225000 0.890185 -0.253085
v -0.225000 0.890185 -0.253085
v -0.225000 0.900000 -0.265000
v 0.205000 0.009701 -0.272575
v 0.205000 0.000000 -0.285000
v -0.205000 0.000000 -0.285000
v -0.205000 0.009701 -0.272575
v 0.205000 0.000000 -0.315000
v 0.205000 0.009701 -0.322575
v -0.205000 0.009701 -0.322575
v -0.205000 0.000000 -0.315000
v -0.205000 0.000000 0.235000
v -0.205000 0.009905 0.223624
v 0.205000 0.009905 0.223624
v 0.205000 0.000000 0.235000
v -0.205000 0.009923 0.273760
v -0.205000 0.000000 0.265000
v 0.205000 0.009923 0.273760
v 0.205000 0.000000 0.265000
v 0.225000 0.000000 0.235000
v 0.225000 0.009905 0.223624
v 0.225000 0.009923 0.273760
v 0.225000 0.000000 0.265000
v -0.225000 0.009905 0.223624
v -0.225000 0.000000 0.235000
v -0.225000 0.000000 0.265000
v -0.225000 0.009905 0.273624
v 0.205000 0.440000 -0.225000
v 0.205000 0.400000 -0.185000
v 0.205000 0.361194 -0.234701
v 0.205425 0.400000 -0.225000
v 0.205000 0.420000 -0.219641
v 0.205000 0.405359 -0.205000
v 0.225000 0.400000 -0.185000
v 0.225000 0.440000 -0.225000
v 0.225000 0.405359 -0.205000
v 0.225000 0.420000 -0.219641
v -0.205000 0.400000 -0.185000
v -0.205000 0.440000 -0.225000
v -0.205425 0.400000 -0.225000
v -0.205000 0.361194 -0.234701
v -0.205000 0.405359 -0.205000
v -0.205000 0.420000 -0.219641
v -0.225000 0.440000 -0.225000
v -0.225000 0.400000 -0.185000
v -0.225000 0.420000 -0.219641
v -0.225000 0.405359 -0.205000
vn -0.0000 -0.1104 -0.9939
vn 1.0000 -0.0000 -0.0000
vn -1.0000 -0.0000 -0.0000
vn -0.0000 -0.9659 -0.2588
vn -0.0000 -0.7071 -0.7071
vn -0.0000 -0.2588 -0.9659
vn -0.0000 0.9659 0.2588
vn -0.0000 0.7071 0.7071
vn -0.0000 0.2588 0.9659
vn -0.0000 -1.0000 -0.0000
vn -0.0000 -0.0000 1.0000
vn -0.0000 1.0000 -0.0000
vn -0.1325 0.0662 0.9890
vn -0.4428 0.1404 0.8856
vn -0.8753 0.1173 0.4691
vn -0.8588 -0.0706 0.5073
vn -0.3929 -0.0825 0.9159
vn -0.1059 -0.0272 0.9940
vn -0.0000 0.7719 0.6358
vn -0.0000 0.1915 0.9815
vn -0.0000 -0.6618 0.7497
vn -0.0000 -0.7882 0.6154
vn -0.0000 -0.6154 -0.7882
vn -0.0000 -0.7542 -0.6567
vn -0.0022 -0.6592 0.7519
vn -0.0000 -0.2425 0.9701
vn -0.0000 -0.1376 -0.9905
vn -0.0000 0.1240 0.9923
vn -0.1327 0.1293 0.9827
vn 0.9999 -0.0018 0.0142
vn -0.0000 -0.0000 -1.0000
vn -0.9999 -0.0018 0.0142
vn -0.0000 0.2425 -0.9701
vt 0.625000 0.500000
vt 0.625000 0.250000
vt 0.375000 0.750000
vt 0.375000 0.750000
vt 0.375000 0.746739
vt 0.375000 0.724492
vt 0.575000 0.750000
vt 0.375000 0.024469
vt 0.375000 0.000000
vt 0.375000 0.000000
vt 0.548077 0.000000
vt 0.125000 0.721429
vt 0.375000 0.721429
vt 0.375000 0.735714
vt 0.125000 0.735714
vt 0.125000 0.750000
vt 0.125000 0.750000
vt 0.625000 0.750000
vt 0.625000 0.750000
vt 0.608633 0.750000
vt 0.525000 0.750000
vt 0.525000 0.750000
vt 0.425000 0.750000
vt 0.875000 0.750000
vt 0.875000 0.750000
vt 0.625000 1.000000
vt 0.525000 1.000000
vt 0.425000 1.000000
vt 0.125000 0.735714
vt 0.125000 0.750000
vt 0.875000 0.750000
vt 0.525000 1.000000
vt 0.125000 0.500000
vt 0.375000 0.500000
vt 0.375000 1.000000
vt 0.625000 0.500000
vt 0.625000 0.503261
vt 0.625000 0.525411
vt 0.425000 0.500000
vt 0.625000 0.221429
vt 0.625000 0.235714
vt 0.625000 0.246172
vt 0.625000 0.250000
vt 0.425000 0.250000
vt 0.875000 0.528571
vt 0.875000 0.514286
vt 0.875000 0.514286
vt 0.875000 0.500000
vt 0.875000 0.500000
vt 0.875000 0.500000
vt 0.625000 0.528572
vt 0.625000 0.514286
vt 0.625000 0.500000
vt 0.525000 0.000000
vt 0.425000 0.000000
vt 0.460199 1.000000
vt 0.438398 1.000000
vt 0.375000 1.000000
vt 0.425000 1.000000
vt 0.625000 0.000000
vt 0.375000 0.250000
vt 0.598205 0.000000
vt 0.875000 0.500000
vt 0.625000 0.500000
vt 0.625000 0.500000
vt 0.375000 0.750000
vt 0.375000 0.750000
vt 0.375000 0.500000
vt 0.375000 0.500000
vt 0.375000 0.500000
vt 0.125000 0.750000
vt 0.125000 0.750000
vt 0.575000 0.500000
vt 0.475000 0.500000
vt 0.393882 0.500000
vt 0.375000 0.500000
vt 0.375000 0.475610
vt 0.475000 0.500000
vt 0.391368 0.500000
vt 0.375000 0.250000
vt 0.404534 0.250000
vt 0.556609 0.250000
vt 0.375000 0.274390
vt 0.375000 0.250000
vt 0.391367 0.250000
vt 0.475000 0.250000
vt 0.575000 0.250000
s 0
usemtl Material
f 5/1/1 6/2/1 7/2/1 8/1/1
f 5/1/1 8/1/1 14/1/1 13/1/1
f 7/2/1 6/2/1 18/2/1 19/2/1
f 36/3/2 40/4/2 41/5/2 37/6/2 38/7/2 39/3/2
f 46/8/3 50/9/3 51/10/3 47/9/3 48/10/3 49/11/3
f 25/12/4 20/13/4 22/14/4 27/15/4
f 27/15/5 22/14/5 23/3/5 26/16/5
f 26/16/6 23/3/6 21/4/6 24/17/6
f 42/18/7 32/19/7 34/19/7 44/20/7
f 44/20/8 34/19/8 35/21/8 45/22/8
f 45/22/9 35/21/9 33/23/9 43/23/9
f 32/19/7 28/24/7 30/25/7 34/19/7
f 34/19/8 30/26/8 31/27/8 35/21/8
f 35/21/9 31/27/9 29/28/9 33/23/9
f 20/13/4 37/6/4 41/5/4 22/14/4
f 22/14/5 41/5/5 40/4/5 23/3/5
f 23/3/6 40/4/6 36/3/6 21/4/6
f 46/12/4 25/12/4 27/15/4 50/29/4
f 50/29/5 27/15/5 26/16/5 51/30/5
f 51/30/6 26/16/6 24/17/6 47/16/6
f 28/24/7 52/31/7 54/24/7 30/25/7
f 30/26/8 54/26/8 53/32/8 31/27/8
f 3/33/10 1/34/10 20/13/10 25/12/10
f 20/13/10 1/34/10 11/34/10 37/6/10
f 3/33/10 25/12/10 46/12/10 16/33/10
f 10/3/11 33/23/11 29/28/11 9/35/11
f 2/18/12 4/24/12 28/24/12 32/19/12
f 28/24/12 4/24/12 17/24/12 52/31/12
f 2/18/12 32/19/12 42/18/12 12/18/12
f 33/23/11 10/3/11 15/3/11 43/23/11
f 39/3/2 38/7/2 12/18/2 42/18/2 44/20/2 45/22/2 43/23/2 15/3/2
f 63/36/2 67/1/2 68/37/2 64/38/2 65/39/2 66/1/2
f 69/40/3 73/41/3 74/42/3 70/2/3 71/43/3 72/44/3
f 75/9/13 78/10/13 77/9/13
f 78/10/14 79/9/14 77/9/14
f 79/9/15 76/10/15 77/9/15
f 69/45/7 59/45/7 61/46/7 73/47/7
f 73/47/8 61/46/8 62/48/8 74/49/8
f 74/49/9 62/48/9 60/48/9 70/50/9
f 59/45/7 55/51/7 57/52/7 61/46/7
f 61/46/8 57/52/8 58/53/8 62/48/8
f 62/48/9 58/53/9 56/1/9 60/48/9
f 63/36/9 56/1/9 58/53/9 67/1/9
f 67/1/8 58/53/8 57/52/8 68/37/8
f 68/37/7 57/52/7 55/51/7 64/38/7
f 80/54/16 76/9/16 79/9/16 82/55/16
f 82/56/17 79/35/17 78/35/17 83/57/17
f 83/57/18 78/35/18 75/58/18 81/59/18
f 55/51/12 2/18/12 12/18/12 64/38/12
f 55/51/12 59/45/12 4/24/12 2/18/12
f 4/24/12 59/45/12 69/45/12 17/24/12
f 11/34/2 65/39/2 64/38/2 12/18/2 38/7/2 37/6/2
f 46/8/3 49/11/3 17/60/3 69/40/3 72/44/3 16/61/3
f 9/35/12 29/28/12 81/59/12 75/58/12
f 17/60/3 49/11/3 48/10/3 76/9/3 80/54/3 53/54/3 54/62/3 52/60/3
f 31/27/9 53/32/9 80/32/9 82/56/9 83/57/9 81/59/9 29/28/9
f 85/48/19 91/49/19 90/50/19 84/63/19
f 84/63/19 86/1/19 87/64/19 85/48/19
f 88/1/19 87/64/19 86/1/19 89/65/19
f 60/48/20 84/63/20 90/50/20 70/50/20
f 85/48/12 87/64/12 8/1/12 7/63/12
f 85/48/12 7/63/12 19/63/12 91/49/12
f 60/48/20 56/1/20 86/1/20 84/63/20
f 8/1/12 87/64/12 88/1/12 14/1/12
f 86/1/20 56/1/20 63/36/20 89/65/20
f 63/36/2 66/1/2 13/1/2 14/1/2 88/1/2 89/65/2
f 18/2/3 71/43/3 70/2/3 90/2/3 91/2/3 19/2/3
f 107/4/21 111/66/21 110/3/21 106/67/21
f 92/68/22 95/33/22 94/33/22 93/69/22
f 96/70/23 99/33/23 98/33/23 97/70/23
f 101/16/24 102/3/24 103/4/24 100/30/24
f 105/16/21 107/4/21 106/67/21 104/16/21
f 108/4/24 103/4/24 102/3/24 109/3/24
f 100/30/24 113/71/24 112/72/24 101/16/24
f 104/16/25 115/16/25 114/30/25 105/16/25
f 93/69/10 94/33/10 99/33/10 96/70/10
f 1/34/26 3/33/26 95/33/26 92/68/26
f 24/17/27 21/4/27 102/3/27 101/16/27
f 100/30/10 103/4/10 107/4/10 105/16/10
f 100/30/10 105/16/10 114/30/10 113/71/10
f 24/17/27 101/16/27 112/72/27 47/16/27
f 107/4/10 103/4/10 108/4/10 111/66/10
f 102/3/27 21/4/27 36/3/27 109/3/27
f 10/3/28 9/35/28 104/35/28 106/67/28
f 104/35/29 9/35/29 75/35/29 77/35/29 115/35/29
f 10/3/28 106/67/28 110/3/28 15/3/28
f 36/3/2 39/3/2 15/3/2 110/3/2 111/66/2 108/4/2 109/3/2
f 77/9/3 76/9/3 48/9/3 47/9/3 112/9/3 113/9/3 114/9/3 115/9/3
f 116/73/30 120/74/30 121/75/30 117/34/30 118/76/30 119/77/30
f 116/73/6 123/73/6 125/78/6 120/74/6
f 120/74/5 125/78/5 124/79/5 121/75/5
f 121/75/4 124/79/4 122/34/4 117/34/4
f 116/73/31 5/1/31 13/1/31 123/73/31
f 118/76/2 117/34/2 1/34/2 92/68/2 93/69/2 96/70/2 97/70/2
f 1/34/10 117/34/10 122/34/10 11/34/10
f 66/1/2 65/39/2 11/34/2 122/34/2 124/79/2 125/78/2 123/73/2 13/1/2
f 126/61/32 130/80/32 131/81/32 127/82/32 128/83/32 129/84/32
f 126/61/4 133/61/4 135/85/4 130/80/4
f 130/80/5 135/85/5 134/86/5 131/81/5
f 131/81/6 134/86/6 132/87/6 127/82/6
f 128/83/31 127/82/31 6/2/31 5/1/31 116/73/31 119/77/31
f 126/61/10 3/61/10 16/61/10 133/61/10
f 6/2/31 127/82/31 132/87/31 18/2/31
f 3/61/3 126/61/3 129/84/3 98/61/3 99/61/3 94/61/3 95/61/3
f 129/84/33 128/83/33 119/77/33 118/76/33 97/70/33 98/61/33
f 16/61/3 72/44/3 71/43/3 18/2/3 132/87/3 134/86/3 135/85/3 133/61/3
