# Blender 4.5.0
# www.blender.org
mtllib model1.mtl
o Cube
v 1.000000 1.000000 -1.000000
v 1.000000 -1.000000 -1.000000
v 1.000000 1.000000 1.000000
v 1.000000 -1.000000 1.000000
v -1.000000 1.000000 -1.000000
v -1.000000 -1.000000 -1.000000
v -1.000000 1.000000 1.000000
v -1.000000 -1.000000 1.000000
v 0.500000 2.500000 1.000000
v -0.500000 2.500000 1.000000
v 1.000000 2.000000 -1.000000
v -1.000000 2.000000 -1.000000
v 2.459769 1.000000 -1.000000
v 2.032213 2.000000 2.032213
v 2.459769 2.000000 -1.000000
v 0.500000 3.500000 1.000000
v -0.500000 3.500000 1.000000
v 0.500000 2.500000 0.503693
v -0.500000 2.500000 0.503693
v 0.500000 3.500000 0.503693
v -0.500000 3.500000 0.503693
v 0.500000 2.500000 0.530813
v -0.500000 2.500000 0.530813
v 0.500000 3.500000 0.530813
v -0.500000 3.500000 0.530813
v 1.000000 3.800000 -1.000000
v 0.800000 4.000000 -0.800000
v 0.941421 3.941422 -0.941421
v -0.800000 4.000000 -0.800000
v -1.000000 3.800000 -1.000000
v -0.941421 3.941422 -0.941421
v 0.800000 4.000000 0.800000
v 0.941421 3.941422 0.941421
v -0.800000 4.000000 0.800000
v -0.941421 3.941422 0.941421
v 1.000000 2.000000 0.800000
v 0.800000 2.200000 1.000000
v 0.800000 2.000000 1.000000
v 1.141421 2.000000 1.141421
v 0.941421 2.058579 0.941421
v -0.800000 2.200000 1.000000
v -1.000000 2.000000 0.800000
v -1.000000 1.800000 1.000000
v -1.000000 2.000000 1.200000
v -0.800000 2.000000 1.000000
v -0.941421 2.058579 0.941421
v 0.800000 3.680000 1.000000
v 1.000000 3.800000 0.800000
v 0.941439 3.941378 0.941439
v 0.800000 3.800000 1.000000
v 0.941421 3.764853 0.941421
v -1.000000 3.800000 0.800000
v -0.800000 3.680000 1.000000
v -0.800000 3.800000 1.000000
v -0.941439 3.941378 0.941439
v -0.941421 3.764853 0.941421
v -1.000000 2.000000 2.159769
v -1.000000 1.700000 2.459769
v -0.702939 2.000000 2.417882
v -1.000000 1.955487 2.307016
v -0.955702 2.000000 2.301104
v -0.965048 1.964839 2.370173
v -0.955923 1.847247 2.453554
v -1.000000 1.847247 2.415256
v -0.965158 1.915188 2.419669
v -0.849074 2.000000 2.393752
v -0.848744 1.955487 2.438441
v -0.916162 1.964839 2.412650
v 2.032213 1.115918 2.032213
v 1.929615 1.000000 1.929615
v 2.048398 1.000000 1.917431
v 2.002162 1.033952 2.002162
v -1.000000 1.000000 2.342705
v -1.000000 1.115918 2.459769
v -1.000000 1.033952 2.425482
v 1.000000 0.333333 -1.000000
v 1.000000 -0.333333 -1.000000
v -1.000000 -0.333333 1.000000
v -1.000000 0.333333 1.000000
v 1.000000 0.333333 1.000000
v 1.000000 -0.333333 1.000000
v -1.000000 0.333333 -1.000000
v -1.000000 -0.333333 -1.000000
v 0.759149 0.333333 -0.759149
v 0.759149 -0.333333 -0.759149
v -0.759149 -0.333333 0.759149
v -0.759149 0.333333 0.759149
v 0.759149 0.333333 0.759149
v 0.759149 -0.333333 0.759149
v -0.759149 0.333333 -0.759149
v -0.759149 -0.333333 -0.759149
v 1.000000 3.011980 0.800000
v 1.000000 3.800000 0.042529
v 1.000000 3.210657 -0.338464
v 1.000000 2.921664 -0.143494
v 1.000000 2.616781 -0.132347
v 1.000000 2.139594 -0.170620
v 1.000000 2.578932 -0.613722
v 1.000000 2.569711 -0.360167
v 1.000000 2.853108 -0.663851
v 1.177715 3.210657 -0.338464
v 1.177715 3.011980 0.800000
v 1.177715 3.800000 0.042529
v 1.185348 2.921664 -0.143494
v 1.185348 2.616781 -0.132347
v 1.185348 2.139594 -0.170620
v 1.185348 2.578932 -0.613722
v 1.185348 2.569711 -0.360167
v 1.185348 2.853108 -0.663851
vn -0.0000 -0.0000 1.0000
vn -1.0000 -0.0000 -0.0000
vn -0.0000 -1.0000 -0.0000
vn 1.0000 -0.0000 -0.0000
vn -0.0000 -0.0000 -1.0000
vn -0.0000 1.0000 -0.0000
vn -0.0000 0.9239 0.3827
vn 0.3827 0.9239 -0.0000
vn -0.3827 0.9239 -0.0000
vn -0.0000 0.9239 -0.3827
vn -0.0000 0.3827 -0.9239
vn 0.2534 0.8652 0.4326
vn -0.8096 0.4965 0.3131
vn 0.6293 -0.0001 0.7771
vn -0.6293 -0.0001 0.7771
vn 0.3827 -0.0000 0.9239
vn 0.9239 -0.0000 0.3827
vn -0.3827 -0.0000 0.9239
vn -0.9239 -0.0000 0.3827
vn 0.9239 0.3827 -0.0000
vn -0.0000 0.3827 0.9239
vn -0.9239 0.3827 -0.0000
vn -0.6745 0.7017 0.2293
vn -0.8264 0.3982 0.3981
vn -0.6368 0.2397 0.7329
vn -0.2788 0.3982 0.8739
vn -0.1329 0.7017 0.6999
vn -0.3389 0.8562 0.3900
vn -0.5237 0.6020 0.6027
vn 0.6900 -0.4583 0.5602
vn 0.0400 -0.9198 0.3904
vn 0.1290 -0.3827 0.9148
vn 0.0534 -0.9239 0.3789
vn 0.1396 -0.0000 0.9902
vn 0.9902 -0.0000 0.1396
vn -0.0000 0.5429 -0.8398
vn -0.0000 0.9914 -0.1306
vn -0.0000 0.6930 0.7209
vn -0.0000 -0.9851 -0.1719
vn -0.0000 0.9993 0.0363
vn -0.0000 -0.0799 0.9968
vn -0.0000 -0.7311 -0.6823
vn -0.0000 -0.7101 -0.7041
vn -0.0000 0.0365 0.9993
vt 0.541667 0.750000
vt 0.625000 0.750000
vt 0.625000 1.000000
vt 0.541667 1.000000
vt 0.541667 0.000000
vt 0.625000 0.000000
vt 0.625000 0.250000
vt 0.541667 0.250000
vt 0.125000 0.500000
vt 0.375000 0.500000
vt 0.375000 0.750000
vt 0.125000 0.750000
vt 0.541667 0.500000
vt 0.625000 0.500000
vt 0.812500 0.750000
vt 0.687500 0.750000
vt 0.687500 0.750000
vt 0.812500 0.750000
vt 0.650000 0.725000
vt 0.850000 0.725000
vt 0.870028 0.747649
vt 0.628661 0.746339
vt 0.650000 0.525000
vt 0.626731 0.501731
vt 0.850000 0.525000
vt 0.871339 0.503661
vt 0.625000 0.250000
vt 0.625000 0.500000
vt 0.625000 0.250000
vt 0.625000 0.725000
vt 0.625000 0.749394
vt 0.649158 0.750000
vt 0.650000 0.750000
vt 0.625000 0.000000
vt 0.625000 0.024712
vt 0.625000 0.000000
vt 0.650000 0.750000
vt 0.625451 0.750000
vt 0.625000 0.725220
vt 0.628660 0.746340
vt 0.650000 0.750000
vt 0.625000 0.025000
vt 0.625000 0.000816
vt 0.625000 0.007320
vt 0.625000 0.725124
vt 0.850000 0.750000
vt 0.850000 0.750000
vt 0.875000 0.750000
vt 0.875000 0.750000
vt 0.850000 0.750000
vt 0.625000 0.542036
vt 0.625000 0.580002
vt 0.625000 0.548300
vt 0.625000 0.603680
vt 0.625000 0.608490
vt 0.625000 0.630444
vt 0.870030 0.747650
vt 0.850000 0.750000
vt 0.625000 0.007322
vt 0.625000 0.996366
vt 0.625000 1.000000
vt 0.625000 0.999493
vt 0.625000 0.987529
vt 0.625000 0.992685
vt 0.850508 0.750000
vt 0.861996 0.750000
vt 0.836782 0.780904
vt 0.862529 0.750000
vt 0.870811 0.750000
vt 0.874273 0.750000
vt 0.625000 0.750000
vt 0.625000 0.752087
vt 0.625000 0.740536
vt 0.625000 0.757125
vt 0.625000 1.000000
vt 0.625000 0.999609
vt 0.625000 0.752087
vt 0.625000 0.750000
vt 0.625000 0.975508
vt 0.375000 0.250000
vt 0.458333 0.250000
vt 0.458333 0.500000
vt 0.458333 1.000000
vt 0.458333 0.750000
vt 0.375000 0.000000
vt 0.458333 0.000000
vt 0.375000 1.000000
vt 0.625000 0.582745
vt 0.625000 0.607112
s 0
usemtl Material
f 80/1/1 3/2/1 7/3/1 79/4/1
f 79/5/2 7/6/2 5/7/2 82/8/2
f 6/9/3 2/10/3 4/11/3 8/12/3
f 76/13/4 1/14/4 3/2/4 80/1/4
f 82/8/5 5/7/5 1/14/5 76/13/5
f 1/14/5 5/7/5 12/7/5 11/14/5
f 1/14/5 11/14/5 15/14/5 13/14/5
f 10/15/6 9/16/6 18/16/6 19/15/6
f 18/16/4 20/17/4 24/17/4 22/16/4
f 9/16/2 16/17/2 20/17/2 18/16/2
f 16/17/3 17/18/3 21/18/3 20/17/3
f 17/18/4 10/15/4 19/15/4 21/18/4
f 23/15/1 22/16/1 24/17/1 25/18/1
f 20/17/6 21/18/6 25/18/6 24/17/6
f 21/18/2 19/15/2 23/15/2 25/18/2
f 19/15/3 18/16/3 22/16/3 23/15/3
f 32/19/7 34/20/7 35/21/7 33/22/7
f 27/23/8 32/19/8 33/22/8 28/24/8
f 34/20/9 29/25/9 31/26/9 35/21/9
f 29/25/10 27/23/10 28/24/10 31/26/10
f 31/27/11 28/24/11 26/28/11 30/29/11
f 27/23/6 29/25/6 34/20/6 32/19/6
f 11/14/5 12/7/5 30/29/5 26/28/5
f 36/30/12 40/31/12 37/32/12 38/33/12 39/2/12
f 41/6/13 46/34/13 42/35/13 43/36/13 44/6/13 45/6/13
f 47/37/14 51/38/14 48/39/14 49/40/14 50/41/14
f 52/42/15 56/43/15 53/6/15 54/6/15 55/44/15
f 47/37/16 37/32/16 40/31/16 51/38/16
f 51/38/17 40/31/17 36/30/17 92/45/17 48/39/17
f 41/46/18 53/47/18 56/48/18 46/49/18
f 46/34/19 56/43/19 52/42/19 42/35/19
f 9/16/1 10/15/1 41/46/1 45/50/1 38/33/1 37/32/1
f 16/17/1 9/16/1 37/32/1 47/37/1
f 36/30/4 11/14/4 100/51/4 99/52/4 98/53/4 97/54/4 96/55/4 92/45/4
f 11/14/6 36/30/6 39/2/6 14/2/6 15/14/6
f 5/7/2 7/6/2 43/36/2 42/35/2 12/7/2
f 10/15/1 17/18/1 53/47/1 41/46/1
f 12/7/2 42/35/2 52/42/2 30/29/2
f 28/24/20 33/22/20 49/40/20 48/39/20 93/56/20 26/28/20
f 33/22/21 35/21/21 55/57/21 54/58/21 50/41/21 49/40/21
f 17/18/1 16/17/1 47/37/1 50/41/1 54/58/1 53/47/1
f 35/59/22 31/27/22 30/29/22 52/42/22 55/44/22
f 57/6/23 60/36/23 62/6/23 61/6/23
f 60/36/24 64/6/24 65/6/24 62/6/24
f 58/3/25 63/60/25 65/61/25 64/62/25
f 63/60/26 67/63/26 68/64/26 65/61/26
f 59/65/27 66/66/27 68/67/27 67/68/27
f 66/66/28 61/69/28 62/70/28 68/67/28
f 62/70/29 65/6/29 68/67/29
f 39/2/6 38/33/6 45/50/6 44/49/6 57/49/6 61/69/6 66/66/6 59/65/6 14/2/6
f 69/71/30 72/72/30 71/73/30
f 72/72/31 70/74/31 71/73/31
f 69/71/32 74/75/32 75/76/32 72/77/32
f 72/77/33 75/76/33 73/3/33 70/78/33
f 74/75/34 69/71/34 14/2/34 59/79/34 67/63/34 63/60/34 58/3/34
f 3/2/3 1/14/3 13/14/3 71/73/3 70/78/3
f 7/3/3 3/2/3 70/78/3 73/3/3
f 69/71/35 71/73/35 13/14/35 15/14/35 14/2/35
f 44/6/2 43/36/2 7/6/2 73/6/2 75/34/2 74/6/2 58/6/2 64/6/2 60/36/2 57/6/2
f 6/80/5 83/81/5 77/82/5 2/10/5
f 78/83/6 81/84/6 89/84/6 86/83/6
f 2/10/4 77/82/4 81/84/4 4/11/4
f 82/8/3 76/13/3 84/13/3 90/8/3
f 8/85/2 78/86/2 83/81/2 6/80/2
f 76/13/3 80/1/3 88/1/3 84/13/3
f 4/11/1 81/84/1 78/83/1 8/87/1
f 79/5/3 82/8/3 90/8/3 87/5/3
f 91/81/5 90/8/5 84/13/5 85/82/5
f 85/82/4 84/13/4 88/1/4 89/84/4
f 86/86/2 87/5/2 90/8/2 91/81/2
f 89/84/1 88/1/1 87/4/1 86/83/1
f 83/81/6 78/86/6 86/86/6 91/81/6
f 81/84/6 77/82/6 85/82/6 89/84/6
f 77/82/6 83/81/6 91/81/6 85/82/6
f 80/1/3 79/4/3 87/4/3 88/1/3
f 102/45/4 101/88/4 103/56/4
f 92/45/4 93/56/4 48/39/4
f 94/88/36 93/56/36 103/56/36 101/88/36
f 92/45/4 96/55/4 95/89/4 26/28/4 93/56/4 94/88/4
f 26/28/4 95/89/4 100/51/4 11/14/4
f 100/51/37 95/89/37 104/89/37 109/51/37
f 93/56/38 92/45/38 102/45/38 103/56/38
f 92/45/39 94/88/39 101/88/39 102/45/39
f 104/89/4 105/55/4 106/54/4 107/53/4 108/52/4 109/51/4
f 98/53/40 99/52/40 108/52/40 107/53/40
f 96/55/41 97/54/41 106/54/41 105/55/41
f 99/52/42 100/51/42 109/51/42 108/52/42
f 97/54/43 98/53/43 107/53/43 106/54/43
f 95/89/44 96/55/44 105/55/44 104/89/44
